<?xml version="1.0" encoding="UTF-8"?>
<svg xmlns="http://www.w3.org/2000/svg" xmlns:xlink="http://www.w3.org/1999/xlink" width="40pt" height="40pt" viewBox="0 0 40 40" version="1.1">
<g id="surface5777654">
<path style=" stroke:none;fill-rule:nonzero;fill:rgb(100%,100%,100%);fill-opacity:1;" d="M 4.582031 7.5 C 4.132812 7.492188 3.714844 7.730469 3.484375 8.121094 C 3.257812 8.507812 3.257812 8.992188 3.484375 9.378906 C 3.714844 9.769531 4.132812 10.007812 4.582031 10 L 35.417969 10 C 35.867188 10.007812 36.285156 9.769531 36.515625 9.378906 C 36.742188 8.992188 36.742188 8.507812 36.515625 8.121094 C 36.285156 7.730469 35.867188 7.492188 35.417969 7.5 Z M 4.582031 18.75 C 4.132812 18.742188 3.714844 18.980469 3.484375 19.371094 C 3.257812 19.757812 3.257812 20.242188 3.484375 20.628906 C 3.714844 21.019531 4.132812 21.257812 4.582031 21.25 L 35.417969 21.25 C 35.867188 21.257812 36.285156 21.019531 36.515625 20.628906 C 36.742188 20.242188 36.742188 19.757812 36.515625 19.371094 C 36.285156 18.980469 35.867188 18.742188 35.417969 18.75 Z M 4.582031 30 C 4.132812 29.992188 3.714844 30.230469 3.484375 30.621094 C 3.257812 31.007812 3.257812 31.492188 3.484375 31.878906 C 3.714844 32.269531 4.132812 32.507812 4.582031 32.5 L 35.417969 32.5 C 35.867188 32.507812 36.285156 32.269531 36.515625 31.878906 C 36.742188 31.492188 36.742188 31.007812 36.515625 30.621094 C 36.285156 30.230469 35.867188 29.992188 35.417969 30 Z M 4.582031 30 "/>
</g>
</svg>
